<?xml version="1.0" encoding="utf-8"?>
<!-- Generator: Adobe Illustrator 27.6.1, SVG Export Plug-In . SVG Version: 6.00 Build 0)  -->
<svg version="1.1" id="Layer_1" xmlns:sketch="http://www.bohemiancoding.com/sketch/ns"
	 xmlns="http://www.w3.org/2000/svg" xmlns:xlink="http://www.w3.org/1999/xlink" x="0px" y="0px" viewBox="0 0 60 60"
	 style="enable-background:new 0 0 60 60;" xml:space="preserve">
<style type="text/css">
	.st0{fill:#FFFFFF;}
</style>
<path class="st0" d="M30,0C13.4,0,0,13.4,0,30s13.4,30,30,30s30-13.4,30-30S46.6,0,30,0z M21.9,43.8h-5.7V25.5h5.7V43.8z M19,21.9
	c-1.8,0-2.9-1.3-2.9-2.9c0-1.7,1.1-2.9,2.9-2.9s2.9,1.3,2.9,2.9S20.8,21.9,19,21.9z M43.9,43.8h-5.7V33.4c0-2.5-1.5-3.8-3.7-3.8
	c-1.7,0-2.8,1.2-3.2,2.3c-0.2,0.4-0.2,0.9-0.2,1.5v10.4h-5.6c0,0,0.1-16.6,0-18.4h5.7v2.4c0.8-1.2,2.3-3.1,5.6-3.1
	c4,0,7.1,2.7,7.1,8.4V43.8z"/>
</svg>
