<?xml version="1.0" encoding="utf-8"?>
<!-- Generator: Adobe Illustrator 27.6.1, SVG Export Plug-In . SVG Version: 6.00 Build 0)  -->
<svg version="1.1" id="Layer_1" xmlns:serif="http://www.serif.com/"
	 xmlns="http://www.w3.org/2000/svg" xmlns:xlink="http://www.w3.org/1999/xlink" x="0px" y="0px" viewBox="0 0 595.3 841.9"
	 style="enable-background:new 0 0 595.3 841.9;" xml:space="preserve">
<style type="text/css">
	.st0{fill-rule:evenodd;clip-rule:evenodd;fill:#FFFFFF;}
</style>
<path class="st0" d="M297.6,123.3c164.3,0,297.6,133.4,297.6,297.6S461.9,718.6,297.6,718.6S0,585.2,0,420.9
	S133.4,123.3,297.6,123.3z M471.4,577.8v-5.9l-27.2-26.7c-2.4-1.8-3.6-4.8-3.1-7.8V341.3c-0.5-3,0.7-6,3.1-7.8l27.8-26.7v-5.9h-96.4
	l-68.7,171.4l-78.2-171.4H127.6v5.9l32.6,39.2c3.2,2.9,4.8,7.1,4.4,11.4v154.2c0.9,5.6-0.8,11.2-4.7,15.3l-36.6,44.4v5.9h103.9v-5.9
	l-36.6-44.4c-3.9-4.1-5.8-9.7-5-15.3V378.2l91.2,198.9h10.6l78.3-198.9v158.6c0,4.2,0,5-2.8,7.8l-28.2,27.4v5.9H471.4L471.4,577.8z"
	/>
</svg>
