<?xml version="1.0" encoding="utf-8"?>
<!-- Generator: Adobe Illustrator 27.6.1, SVG Export Plug-In . SVG Version: 6.00 Build 0)  -->
<svg version="1.1" id="Layer_1" xmlns="http://www.w3.org/2000/svg" xmlns:xlink="http://www.w3.org/1999/xlink" x="0px" y="0px"
	 viewBox="0 0 800 800" style="enable-background:new 0 0 800 800;" xml:space="preserve">
<style type="text/css">
	.st0{fill:#FFFFFF;}
</style>
<path class="st0" d="M447,408.2c0,115-92.6,208.2-206.8,208.2c-114.2,0-206.8-93.2-206.8-208.2c0-115,92.6-208.2,206.8-208.2
	C354.4,200,447,293.2,447,408.2z M673.9,408.2c0,108.3-46.3,196-103.4,196c-57.1,0-103.4-87.8-103.4-196c0-108.2,46.3-196,103.4-196
	C627.6,212.2,673.9,300,673.9,408.2z M766.7,408.2c0,97-16.3,175.6-36.4,175.6c-20.1,0-36.4-78.7-36.4-175.6
	c0-97,16.3-175.6,36.4-175.6C750.4,232.6,766.7,311.2,766.7,408.2z"/>
</svg>
